# xmcd
#
# Track frame offsets: 
#        150
#        13040
#        37470
#        53837
#        67842
#        92795
#        106565
#        132332
#        151725
#        166282
#
# Disc length: 2483 seconds
#
# Revision: 2
# Processed by: cddbd v1.5.2PL0 Copyright (c) Steve Scherf et al.
# Submitted via: ExactAudioCopy v1.0b4
#
DISCID=7809b10a
DTITLE=Smokin' Joe Kubek - Steppin' Out Texas Style
DYEAR=1991
DGENRE=Texas Blues
TTITLE0=Comin' Home Today
TTITLE1=I Wonder Why
TTITLE2=Natural Born Lover
TTITLE3=Everbody's Talkin'
TTITLE4=Square Bizness
TTITLE5=Hands On It
TTITLE6=Smokin' Joes Cafe
TTITLE7=That's All I Want
TTITLE8=Steppin' Out
TTITLE9=Lonely Days
EXTD=
EXTT0=
EXTT1=
EXTT2=
EXTT3=
EXTT4=
EXTT5=
EXTT6=
EXTT7=
EXTT8=
EXTT9=
PLAYORDER=
